<?xml version="1.0" encoding="utf-8"?>
<!-- Generator: Adobe Illustrator 16.0.0, SVG Export Plug-In . SVG Version: 6.00 Build 0)  -->
<!DOCTYPE svg PUBLIC "-//W3C//DTD SVG 1.1//EN" "http://www.w3.org/Graphics/SVG/1.1/DTD/svg11.dtd">
<svg version="1.1" id="Layer_1" xmlns="http://www.w3.org/2000/svg" xmlns:xlink="http://www.w3.org/1999/xlink" x="0px" y="0px"
	 width="17.944px" height="18.616px" viewBox="0 0 17.944 18.616" enable-background="new 0 0 17.944 18.616" xml:space="preserve">
<g>
	<path fill="#939598" d="M15.862,16.875c-0.614,0.627-1.595,0.632-2.193,0.013l-2.751-2.854c-0.946,0.622-2.064,0.987-3.264,0.987
		c-3.373,0-6.117-2.847-6.117-6.346S4.281,2.33,7.654,2.33s6.117,2.847,6.117,6.346c0,1.081-0.263,2.099-0.724,2.991l2.832,2.938
		C16.477,15.226,16.476,16.248,15.862,16.875 M16.616,0H1.323C0.593,0,0,0.601,0,1.342v15.931c0,0.741,0.593,1.344,1.323,1.344
		h15.293c0.732,0,1.328-0.603,1.328-1.344V1.342C17.944,0.601,17.348,0,16.616,0"/>
	<rect fill="none" width="17.944" height="18.616"/>
	<path fill="#939598" d="M12.718,8.617c0-2.905-2.278-5.269-5.078-5.269c-2.8,0-5.077,2.363-5.077,5.269
		c0,2.904,2.277,5.268,5.077,5.268C10.44,13.885,12.718,11.521,12.718,8.617"/>
	<rect x="2.563" y="3.349" fill="none" width="10.155" height="10.536"/>
</g>
</svg>
