<?xml version="1.0" encoding="utf-8"?>
<!-- Generator: Adobe Illustrator 16.0.0, SVG Export Plug-In . SVG Version: 6.00 Build 0)  -->
<!DOCTYPE svg PUBLIC "-//W3C//DTD SVG 1.1//EN" "http://www.w3.org/Graphics/SVG/1.1/DTD/svg11.dtd">
<svg version="1.1" id="Layer_1" xmlns="http://www.w3.org/2000/svg" xmlns:xlink="http://www.w3.org/1999/xlink" x="0px" y="0px"
	 width="47.748px" height="47.748px" viewBox="0 0 47.748 47.748" enable-background="new 0 0 47.748 47.748" xml:space="preserve">
<g>
	<defs>
		<rect id="SVGID_1_" width="47.748" height="47.748"/>
	</defs>
	<clipPath id="SVGID_2_">
		<use xlink:href="#SVGID_1_"  overflow="visible"/>
	</clipPath>
	<path clip-path="url(#SVGID_2_)" fill="#FFFFFF" d="M20.729,35.391V20.01l-4.068,4.069c-1.23,1.228-3.221,1.228-4.45,0
		c-1.229-1.235-1.229-3.228,0-4.449l9.44-9.44c0.607-0.614,1.419-0.922,2.225-0.922c0.805,0,1.609,0.308,2.225,0.922l9.439,9.44
		c1.229,1.222,1.229,3.22,0,4.449c-1.23,1.228-3.22,1.228-4.449,0l-4.068-4.069v15.381c0,1.738-1.408,3.147-3.146,3.147
		C22.135,38.538,20.729,37.129,20.729,35.391 M33.167,45.872c2.843-1.203,5.396-2.925,7.588-5.116
		c2.193-2.192,3.914-4.746,5.116-7.589c1.246-2.943,1.877-6.07,1.877-9.293s-0.631-6.35-1.877-9.293
		c-1.202-2.844-2.923-5.396-5.116-7.588c-2.192-2.192-4.745-3.914-7.588-5.116C30.223,0.632,27.098,0,23.874,0
		s-6.349,0.632-9.293,1.877c-2.843,1.202-5.396,2.924-7.589,5.116C4.8,9.185,3.079,11.737,1.876,14.581
		C0.631,17.524,0,20.651,0,23.874s0.631,6.35,1.876,9.293c1.203,2.843,2.924,5.396,5.116,7.589c2.193,2.191,4.746,3.913,7.589,5.116
		c2.944,1.245,6.069,1.876,9.293,1.876S30.223,47.117,33.167,45.872"/>
</g>
</svg>
