<?xml version="1.0" encoding="utf-8"?>
<!-- Generator: Adobe Illustrator 16.0.0, SVG Export Plug-In . SVG Version: 6.00 Build 0)  -->
<!DOCTYPE svg PUBLIC "-//W3C//DTD SVG 1.1//EN" "http://www.w3.org/Graphics/SVG/1.1/DTD/svg11.dtd">
<svg version="1.1" id="Layer_1" xmlns="http://www.w3.org/2000/svg" xmlns:xlink="http://www.w3.org/1999/xlink" x="0px" y="0px"
	 width="17.999px" height="18px" viewBox="0 0 17.999 18" enable-background="new 0 0 17.999 18" xml:space="preserve">
<g>
	<defs>
		<rect id="SVGID_1_" width="17.999" height="18"/>
	</defs>
	<clipPath id="SVGID_2_">
		<use xlink:href="#SVGID_1_"  overflow="visible"/>
	</clipPath>
	<path clip-path="url(#SVGID_2_)" fill="#FFFFFF" d="M13.995,6.395C14,6.506,14.002,6.617,14.002,6.729
		c0,3.405-2.592,7.332-7.333,7.332c-1.456,0-2.81-0.426-3.95-1.156c0.201,0.023,0.406,0.036,0.614,0.036
		c1.208,0,2.319-0.412,3.201-1.104c-1.128-0.021-2.079-0.766-2.407-1.79c0.157,0.03,0.318,0.047,0.484,0.047
		c0.235,0,0.463-0.032,0.679-0.091C4.111,9.766,3.223,8.724,3.223,7.475c0-0.011,0-0.021,0-0.031
		c0.348,0.192,0.745,0.309,1.168,0.321C3.699,7.303,3.244,6.514,3.244,5.62c0-0.472,0.127-0.915,0.349-1.296
		c1.271,1.56,3.17,2.585,5.312,2.692C8.861,6.828,8.838,6.632,8.838,6.429c0-1.423,1.155-2.577,2.578-2.577
		c0.741,0,1.411,0.314,1.881,0.815c0.587-0.116,1.139-0.331,1.637-0.626c-0.192,0.602-0.602,1.107-1.134,1.426
		c0.522-0.063,1.019-0.201,1.479-0.406C14.936,5.578,14.498,6.032,13.995,6.395 M16.667,0H1.327C0.595,0,0,0.581,0,1.298v15.403
		C0,17.418,0.595,18,1.327,18h15.34c0.733,0,1.332-0.582,1.332-1.299V1.298C17.999,0.581,17.4,0,16.667,0"/>
</g>
</svg>
