<?xml version="1.0" encoding="utf-8"?>
<!-- Generator: Adobe Illustrator 16.0.0, SVG Export Plug-In . SVG Version: 6.00 Build 0)  -->
<!DOCTYPE svg PUBLIC "-//W3C//DTD SVG 1.1//EN" "http://www.w3.org/Graphics/SVG/1.1/DTD/svg11.dtd">
<svg version="1.1" id="Layer_1" xmlns="http://www.w3.org/2000/svg" xmlns:xlink="http://www.w3.org/1999/xlink" x="0px" y="0px"
	 width="17.999px" height="18px" viewBox="0 0 17.999 18" enable-background="new 0 0 17.999 18" xml:space="preserve">
<g>
	<defs>
		<rect id="SVGID_1_" width="17.999" height="18"/>
	</defs>
	<clipPath id="SVGID_2_">
		<use xlink:href="#SVGID_1_"  overflow="visible"/>
	</clipPath>
	<path clip-path="url(#SVGID_2_)" fill="#939598" d="M14.317,3.442c-1.226,2.227-2.501,4.4-3.715,6.605
		c0.773,1.471,1.582,2.922,2.41,4.417c0.112,0.203,0.3,0.486,0.22,0.663c-0.108,0.237-0.642,0.14-1.064,0.14
		c-0.496,0-0.938,0.091-1.265-0.02c-0.333-0.112-0.635-0.94-0.803-1.244c-0.71-1.291-1.467-2.676-2.168-3.936
		c1.202-2.195,2.62-4.601,3.875-6.867c0.192-0.348,0.348-0.858,0.803-0.883c0.215-0.013,0.645,0.02,1.084,0.02
		c0.364,0,0.926-0.053,1.024,0.101C14.886,2.702,14.443,3.212,14.317,3.442 M5.944,11.393H3.996
		c-0.069,0.009-0.215-0.068-0.241-0.159c-0.06-0.21,0.12-0.378,0.201-0.522c0.547-0.973,0.997-1.79,1.546-2.771
		C5.57,7.82,5.759,7.593,5.763,7.498C5.769,7.357,5.52,7.011,5.442,6.876C5.196,6.45,4.967,6.083,4.739,5.691
		C4.641,5.524,4.446,5.345,4.498,5.028c0.022-0.1,0.116-0.125,0.221-0.141h1.928C7.01,4.893,7.13,5.254,7.289,5.53
		c0.368,0.642,0.8,1.345,1.125,1.947c-0.526,0.94-1.112,1.981-1.687,2.992C6.545,10.789,6.342,11.345,5.944,11.393 M16.667,0H1.327
		C0.595,0,0,0.581,0,1.298v15.403C0,17.418,0.595,18,1.327,18h15.34c0.734,0,1.332-0.582,1.332-1.299V1.298
		C17.999,0.581,17.401,0,16.667,0"/>
</g>
</svg>
