<?xml version="1.0" standalone="no"?>
<!DOCTYPE svg PUBLIC "-//W3C//DTD SVG 20010904//EN"
 "http://www.w3.org/TR/2001/REC-SVG-20010904/DTD/svg10.dtd">
<svg version="1.0" xmlns="http://www.w3.org/2000/svg"
 width="600.000000pt" height="600.000000pt" viewBox="0 0 600.000000 600.000000"
 preserveAspectRatio="xMidYMid meet">
<metadata>
Created by potrace 1.11, written by Peter Selinger 2001-2013
</metadata>
<g transform="translate(0.000000,600.000000) scale(0.100000,-0.100000)"
fill="#000000" stroke="none">
<path d="M2906 5598 c-84 -10 -227 -57 -304 -99 -149 -84 -274 -207 -355 -351
-40 -72 -93 -219 -103 -288 -10 -72 -12 -229 -4 -268 5 -21 11 -53 14 -74 21
-137 122 -323 242 -442 118 -118 292 -214 435 -241 13 -3 35 -7 49 -11 14 -3
68 -7 121 -8 290 -10 567 122 744 356 43 56 129 220 140 265 44 181 50 302 23
437 -22 108 -38 157 -79 239 -170 338 -536 531 -923 485z"/>
<path d="M1198 3815 c-2 -2 -25 -5 -53 -9 -198 -24 -380 -117 -515 -262 -67
-72 -95 -111 -139 -195 -165 -317 -117 -707 122 -974 232 -259 590 -355 917
-245 140 47 235 113 400 279 69 70 152 147 185 172 132 101 291 193 430 249
44 17 89 35 100 40 25 10 181 51 215 56 146 22 302 4 480 -56 293 -97 530
-251 746 -482 247 -266 562 -360 895 -268 247 68 453 255 559 507 16 38 32 84
35 103 3 18 8 36 10 40 7 11 18 131 18 185 -4 477 -392 861 -868 859 -252 -2
-426 -79 -638 -283 -140 -135 -241 -213 -382 -298 -149 -90 -343 -176 -470
-209 -16 -4 -32 -8 -35 -9 -3 0 -27 -5 -55 -10 -27 -4 -57 -10 -65 -11 -28 -6
-154 -5 -195 1 -34 5 -114 23 -175 39 -250 65 -618 287 -808 487 -180 190
-383 284 -632 293 -44 2 -81 2 -82 1z"/>
<path d="M2882 2094 c-227 -40 -408 -147 -554 -326 -82 -100 -157 -259 -174
-365 -3 -21 -10 -58 -14 -83 -11 -53 -6 -214 9 -285 72 -362 376 -653 741
-711 110 -17 309 -4 385 26 17 6 32 11 35 10 10 -2 135 53 151 67 8 7 19 13
24 13 14 0 109 73 169 129 137 132 236 324 262 516 10 70 11 183 3 230 -4 22
-10 57 -13 78 -8 48 -38 137 -68 202 -95 203 -282 375 -493 454 -62 24 -65 25
-150 42 -78 16 -233 18 -313 3z"/>
</g>
</svg>
