<?xml version="1.0" encoding="utf-8"?>
<!-- Generator: Adobe Illustrator 16.0.0, SVG Export Plug-In . SVG Version: 6.00 Build 0)  -->
<!DOCTYPE svg PUBLIC "-//W3C//DTD SVG 1.1//EN" "http://www.w3.org/Graphics/SVG/1.1/DTD/svg11.dtd">
<svg version="1.1" id="Layer_1" xmlns="http://www.w3.org/2000/svg" xmlns:xlink="http://www.w3.org/1999/xlink" x="0px" y="0px"
	 width="17.999px" height="18px" viewBox="0 0 17.999 18" enable-background="new 0 0 17.999 18" xml:space="preserve">
<g>
	<defs>
		<rect id="SVGID_1_" width="17.999" height="18"/>
	</defs>
	<clipPath id="SVGID_2_">
		<use xlink:href="#SVGID_1_"  overflow="visible"/>
	</clipPath>
	<path clip-path="url(#SVGID_2_)" fill="#939598" d="M15.003,9.343h-2.202v5.894h-2.242V9.343h-1.56V7.222h1.56V5.409
		c0-1.424,0.92-2.732,3.041-2.732c0.858,0,1.493,0.083,1.493,0.083l-0.05,1.981c0,0-0.648-0.006-1.355-0.006
		c-0.764,0-0.887,0.352-0.887,0.937V5.77v1.452h2.303L15.003,9.343z M16.667,0H1.327C0.595,0,0,0.581,0,1.298v15.403
		C0,17.418,0.595,18,1.327,18h15.34c0.733,0,1.332-0.582,1.332-1.299V1.298C17.999,0.581,17.4,0,16.667,0"/>
</g>
</svg>
