<?xml version="1.0" encoding="utf-8"?>
<!-- Generator: Adobe Illustrator 16.0.0, SVG Export Plug-In . SVG Version: 6.00 Build 0)  -->
<!DOCTYPE svg PUBLIC "-//W3C//DTD SVG 1.1//EN" "http://www.w3.org/Graphics/SVG/1.1/DTD/svg11.dtd">
<svg version="1.1" id="Layer_1" xmlns="http://www.w3.org/2000/svg" xmlns:xlink="http://www.w3.org/1999/xlink" x="0px" y="0px"
	 width="17.999px" height="18px" viewBox="0 0 17.999 18" enable-background="new 0 0 17.999 18" xml:space="preserve">
<g>
	<defs>
		<rect id="SVGID_1_" width="17.999" height="18"/>
	</defs>
	<clipPath id="SVGID_2_">
		<use xlink:href="#SVGID_1_"  overflow="visible"/>
	</clipPath>
	<path clip-path="url(#SVGID_2_)" fill="#939598" d="M15.338,15.338h-2.669V11.16c0-0.996-0.018-2.277-1.388-2.277
		c-1.388,0-1.6,1.086-1.6,2.206v4.249H7.014v-8.59h2.558v1.174h0.037c0.357-0.675,1.227-1.387,2.526-1.387
		c2.704,0,3.203,1.778,3.203,4.092V15.338z M4.004,5.575c-0.858,0-1.55-0.694-1.55-1.549s0.692-1.549,1.55-1.549
		c0.853,0,1.547,0.694,1.547,1.549S4.857,5.575,4.004,5.575 M5.339,15.338H2.666v-8.59h2.673V15.338z M16.667,0H1.327
		C0.595,0,0,0.581,0,1.298v15.403C0,17.418,0.595,18,1.327,18h15.34c0.734,0,1.332-0.582,1.332-1.299V1.298
		C17.999,0.581,17.401,0,16.667,0"/>
</g>
</svg>
