<?xml version="1.0" encoding="utf-8"?>
<!-- Generator: Adobe Illustrator 16.0.0, SVG Export Plug-In . SVG Version: 6.00 Build 0)  -->
<!DOCTYPE svg PUBLIC "-//W3C//DTD SVG 1.1//EN" "http://www.w3.org/Graphics/SVG/1.1/DTD/svg11.dtd">
<svg version="1.1" id="Layer_1" xmlns="http://www.w3.org/2000/svg" xmlns:xlink="http://www.w3.org/1999/xlink" x="0px" y="0px"
	 width="298.452px" height="78.46px" viewBox="0 0 298.452 78.46" enable-background="new 0 0 298.452 78.46" xml:space="preserve">
<g>
	<path fill="#9B9C9D" d="M161.854,67.848c-0.299-0.328-0.646-0.579-1.043-0.752s-0.824-0.259-1.285-0.259
		c-0.793,0-1.428,0.257-1.905,0.769c-0.478,0.515-0.716,1.194-0.716,2.041c0,0.883,0.24,1.576,0.721,2.081
		c0.48,0.504,1.145,0.756,1.99,0.756c0.472,0,0.893-0.088,1.263-0.264c0.37-0.177,0.694-0.444,0.976-0.802v2.237
		c-0.358,0.203-0.742,0.355-1.15,0.456c-0.409,0.103-0.844,0.153-1.303,0.153c-1.33,0-2.414-0.424-3.252-1.271
		c-0.838-0.849-1.258-1.945-1.258-3.294c0-1.366,0.434-2.469,1.303-3.307c0.867-0.838,2.002-1.258,3.404-1.258
		c0.441,0,0.848,0.043,1.217,0.13c0.371,0.086,0.717,0.219,1.039,0.398V67.848z"/>
	<path fill="#9B9C9D" d="M170.508,69.7c0-0.787-0.255-1.454-0.762-2c-0.508-0.546-1.128-0.819-1.861-0.819
		c-0.728,0-1.347,0.273-1.856,0.819c-0.511,0.546-0.767,1.213-0.767,2s0.256,1.454,0.767,2c0.51,0.546,1.129,0.819,1.856,0.819
		s1.346-0.273,1.856-0.819S170.508,70.487,170.508,69.7 M163.213,69.683c0-0.62,0.118-1.206,0.354-1.76
		c0.236-0.551,0.574-1.042,1.016-1.472c0.436-0.423,0.938-0.748,1.504-0.975c0.567-0.228,1.16-0.341,1.78-0.341
		c0.639,0,1.239,0.113,1.804,0.341c0.563,0.227,1.069,0.561,1.518,1.002c0.447,0.436,0.787,0.928,1.02,1.477s0.35,1.124,0.35,1.728
		c0,0.627-0.115,1.214-0.345,1.763s-0.565,1.035-1.007,1.459c-0.466,0.447-0.982,0.786-1.549,1.016
		c-0.567,0.229-1.163,0.345-1.79,0.345c-0.614,0-1.205-0.115-1.771-0.345c-0.567-0.229-1.072-0.563-1.514-0.998
		c-0.447-0.441-0.788-0.937-1.02-1.485C163.329,70.888,163.213,70.302,163.213,69.683"/>
	<path fill="#9B9C9D" d="M174.615,73.915v-8.482h1.824v1.386c0.389-0.584,0.844-1.011,1.37-1.28
		c0.524-0.268,1.163-0.401,1.915-0.401c0.632,0,1.17,0.1,1.615,0.3s0.792,0.496,1.042,0.89c0.149,0.233,0.257,0.504,0.323,0.814
		c0.064,0.31,0.098,0.853,0.098,1.629v5.146h-1.959v-4.357c0-1.116-0.137-1.857-0.408-2.225s-0.753-0.551-1.445-0.551
		c-0.453,0-0.857,0.084-1.213,0.251c-0.354,0.167-0.634,0.403-0.836,0.707c-0.144,0.203-0.244,0.464-0.3,0.783
		c-0.058,0.318-0.085,0.828-0.085,1.525v3.866H174.615z"/>
	<path fill="#9B9C9D" d="M185.39,73.915v-8.482h1.825v1.386c0.388-0.584,0.844-1.011,1.369-1.28
		c0.525-0.268,1.164-0.401,1.916-0.401c0.632,0,1.17,0.1,1.615,0.3c0.444,0.2,0.791,0.496,1.043,0.89
		c0.148,0.233,0.256,0.504,0.321,0.814c0.065,0.31,0.099,0.853,0.099,1.629v5.146h-1.959v-4.357c0-1.116-0.138-1.857-0.408-2.225
		c-0.272-0.367-0.754-0.551-1.445-0.551c-0.454,0-0.857,0.084-1.213,0.251s-0.635,0.403-0.836,0.707
		c-0.145,0.203-0.244,0.464-0.301,0.783c-0.057,0.318-0.086,0.828-0.086,1.525v3.866H185.39z"/>
	<path fill="#9B9C9D" d="M202.322,68.652c-0.078-0.607-0.311-1.071-0.699-1.391c-0.387-0.319-0.918-0.479-1.594-0.479
		c-0.638,0-1.15,0.154-1.539,0.465c-0.388,0.311-0.658,0.778-0.813,1.404H202.322z M204.335,69.96h-6.784
		c0.048,0.793,0.284,1.413,0.708,1.856c0.423,0.444,0.987,0.667,1.69,0.667c0.627,0,1.149-0.131,1.566-0.394
		s0.782-0.687,1.092-1.271l1.639,0.913c-0.479,0.854-1.069,1.488-1.772,1.906c-0.704,0.418-1.53,0.627-2.479,0.627
		c-1.36,0-2.443-0.415-3.248-1.244s-1.209-1.937-1.209-3.32c0-1.33,0.416-2.424,1.25-3.279c0.832-0.857,1.9-1.285,3.207-1.285
		c1.367,0,2.432,0.391,3.195,1.172c0.764,0.782,1.146,1.877,1.146,3.285V69.96z"/>
	<path fill="#9B9C9D" d="M212.693,67.848c-0.299-0.328-0.646-0.579-1.043-0.752s-0.824-0.259-1.284-0.259
		c-0.793,0-1.429,0.257-1.906,0.769c-0.478,0.515-0.716,1.194-0.716,2.041c0,0.883,0.24,1.576,0.721,2.081
		c0.48,0.504,1.145,0.756,1.991,0.756c0.472,0,0.892-0.088,1.263-0.264c0.369-0.177,0.694-0.444,0.975-0.802v2.237
		c-0.358,0.203-0.741,0.355-1.15,0.456c-0.408,0.103-0.842,0.153-1.302,0.153c-1.33,0-2.415-0.424-3.253-1.271
		c-0.838-0.849-1.258-1.945-1.258-3.294c0-1.366,0.435-2.469,1.303-3.307c0.867-0.838,2.003-1.258,3.404-1.258
		c0.441,0,0.848,0.043,1.218,0.13c0.37,0.086,0.716,0.219,1.038,0.398V67.848z"/>
	<polygon fill="#9B9C9D" points="215.137,73.915 215.137,67.131 213.65,67.131 213.65,65.433 215.137,65.433 215.137,62.218 
		217.078,62.218 217.078,65.433 218.564,65.433 218.564,67.131 217.078,67.131 217.078,73.915 	"/>
	<polygon fill="#9B9C9D" points="226.225,73.915 226.225,67.131 224.739,67.131 224.739,65.433 226.225,65.433 226.225,62.218 
		228.166,62.218 228.166,65.433 229.652,65.433 229.652,67.131 228.166,67.131 228.166,73.915 	"/>
	<path fill="#9B9C9D" d="M231.326,73.915V60.044h1.824v6.774c0.389-0.584,0.844-1.011,1.37-1.28
		c0.524-0.268,1.163-0.401,1.915-0.401c0.632,0,1.17,0.1,1.615,0.3c0.443,0.2,0.792,0.496,1.042,0.89
		c0.149,0.233,0.257,0.504,0.323,0.814c0.064,0.31,0.098,0.853,0.098,1.629v5.146h-1.959v-4.357c0-1.116-0.137-1.857-0.408-2.225
		s-0.753-0.551-1.445-0.551c-0.453,0-0.857,0.084-1.213,0.251c-0.354,0.167-0.634,0.403-0.836,0.707
		c-0.144,0.203-0.244,0.464-0.3,0.783c-0.058,0.318-0.086,0.828-0.086,1.525v3.866H231.326z"/>
	<path fill="#9B9C9D" d="M248.258,68.652c-0.078-0.607-0.311-1.071-0.699-1.391c-0.387-0.319-0.918-0.479-1.593-0.479
		c-0.638,0-1.151,0.154-1.539,0.465s-0.659,0.778-0.813,1.404H248.258z M250.271,69.96h-6.784c0.049,0.793,0.284,1.413,0.709,1.856
		c0.422,0.444,0.986,0.667,1.69,0.667c0.626,0,1.149-0.131,1.567-0.394c0.416-0.263,0.781-0.687,1.091-1.271l1.638,0.913
		c-0.479,0.854-1.068,1.488-1.771,1.906c-0.705,0.418-1.531,0.627-2.479,0.627c-1.36,0-2.444-0.415-3.249-1.244
		s-1.208-1.937-1.208-3.32c0-1.33,0.416-2.424,1.249-3.279c0.832-0.857,1.9-1.285,3.208-1.285c1.366,0,2.431,0.391,3.194,1.172
		c0.764,0.782,1.146,1.877,1.146,3.285V69.96z"/>
	<path fill="#9B9C9D" d="M263.918,69.646c0-0.877-0.204-1.561-0.613-2.049c-0.408-0.49-0.979-0.734-1.713-0.734
		c-0.734,0-1.311,0.252-1.732,0.756c-0.42,0.504-0.631,1.203-0.631,2.1c0,0.9,0.203,1.596,0.609,2.085
		c0.406,0.488,0.979,0.732,1.719,0.732c0.703,0,1.273-0.264,1.709-0.791S263.918,70.519,263.918,69.646 M263.865,60.044h1.941
		v13.871h-1.941v-1.101c-0.346,0.489-0.75,0.854-1.213,1.092c-0.463,0.239-0.992,0.358-1.588,0.358c-1.199,0-2.144-0.41-2.834-1.231
		c-0.688-0.82-1.033-1.942-1.033-3.369c0-1.354,0.352-2.446,1.056-3.279c0.704-0.832,1.624-1.248,2.757-1.248
		c0.692,0,1.284,0.145,1.776,0.433c0.493,0.291,0.853,0.706,1.079,1.249V60.044z"/>
	<path fill="#9B9C9D" d="M275.159,69.7c0-0.787-0.254-1.454-0.761-2c-0.508-0.546-1.129-0.819-1.861-0.819
		c-0.729,0-1.348,0.273-1.857,0.819c-0.511,0.546-0.766,1.213-0.766,2s0.255,1.454,0.766,2c0.51,0.546,1.129,0.819,1.857,0.819
		c0.727,0,1.346-0.273,1.855-0.819C274.904,71.154,275.159,70.487,275.159,69.7 M267.865,69.683c0-0.62,0.117-1.206,0.354-1.76
		c0.235-0.551,0.573-1.042,1.016-1.472c0.435-0.423,0.937-0.748,1.504-0.975c0.566-0.228,1.16-0.341,1.779-0.341
		c0.64,0,1.24,0.113,1.805,0.341c0.563,0.227,1.068,0.561,1.517,1.002c0.447,0.436,0.787,0.928,1.021,1.477
		c0.232,0.549,0.349,1.124,0.349,1.728c0,0.627-0.114,1.214-0.344,1.763s-0.566,1.035-1.007,1.459
		c-0.467,0.447-0.982,0.786-1.549,1.016c-0.567,0.229-1.164,0.345-1.791,0.345c-0.613,0-1.205-0.115-1.771-0.345
		c-0.567-0.229-1.071-0.563-1.513-0.998c-0.447-0.441-0.788-0.937-1.021-1.485C267.98,70.888,267.865,70.302,267.865,69.683"/>
	<polygon fill="#9B9C9D" points="279.723,73.915 279.723,67.131 278.238,67.131 278.238,65.433 279.723,65.433 279.723,62.218 
		281.665,62.218 281.665,65.433 283.15,65.433 283.15,67.131 281.665,67.131 281.665,73.915 	"/>
	<path fill="#9B9C9D" d="M283.848,72.376l1.611-0.877c0.119,0.424,0.34,0.746,0.662,0.967s0.737,0.331,1.244,0.331
		c0.436,0,0.777-0.101,1.025-0.3c0.246-0.2,0.371-0.474,0.371-0.819c0-0.459-0.442-0.854-1.324-1.181
		c-0.299-0.107-0.528-0.197-0.689-0.269c-0.908-0.377-1.541-0.759-1.902-1.146c-0.36-0.388-0.541-0.859-0.541-1.414
		c0-0.758,0.297-1.372,0.891-1.845c0.594-0.471,1.38-0.705,2.357-0.705c0.656,0,1.219,0.119,1.688,0.361
		c0.468,0.241,0.811,0.586,1.025,1.034l-1.379,0.948c-0.102-0.269-0.278-0.482-0.533-0.641c-0.254-0.156-0.547-0.236-0.881-0.236
		c-0.369,0-0.666,0.088-0.891,0.265c-0.223,0.175-0.336,0.409-0.336,0.702c0,0.441,0.502,0.844,1.504,1.208
		c0.316,0.113,0.561,0.206,0.734,0.277c0.781,0.311,1.341,0.66,1.678,1.052c0.336,0.391,0.505,0.879,0.505,1.463
		c0,0.847-0.307,1.511-0.921,1.991c-0.615,0.479-1.462,0.721-2.542,0.721c-0.829,0-1.519-0.156-2.067-0.466
		C284.588,73.488,284.158,73.015,283.848,72.376"/>
	<path d="M91.991,49.363h-4.069V31.586h3.825v2.907c0.813-1.238,1.735-2.141,2.766-2.71c1.032-0.568,2.247-0.853,3.647-0.853
		c1.388,0,2.538,0.29,3.451,0.872c0.912,0.581,1.606,1.466,2.081,2.652c0.938-1.225,1.935-2.119,2.991-2.682
		c1.057-0.563,2.26-0.843,3.61-0.843c1.175,0,2.2,0.215,3.075,0.646s1.557,1.06,2.044,1.884c0.225,0.389,0.391,0.852,0.497,1.389
		c0.106,0.537,0.16,1.306,0.16,2.306v1.425v10.783H112V40.23c0-2.387-0.253-3.959-0.759-4.716c-0.506-0.756-1.409-1.135-2.71-1.135
		c-1.6,0-2.741,0.511-3.422,1.528c-0.682,1.02-1.022,2.804-1.022,5.354v8.101h-4.107V40.23c0-2.199-0.265-3.726-0.797-4.575
		c-0.531-0.85-1.447-1.275-2.747-1.275c-0.8,0-1.531,0.183-2.194,0.545c-0.663,0.362-1.188,0.861-1.575,1.5
		c-0.25,0.412-0.425,0.919-0.525,1.519c-0.1,0.6-0.15,1.706-0.15,3.319V49.363z"/>
	<path d="M133.468,38.337c-0.163-1.275-0.65-2.247-1.463-2.916c-0.813-0.668-1.925-1.003-3.338-1.003
		c-1.338,0-2.412,0.325-3.225,0.975c-0.813,0.651-1.382,1.633-1.706,2.944H133.468z M137.687,41.075h-14.214
		c0.1,1.663,0.594,2.96,1.482,3.891c0.887,0.933,2.068,1.397,3.544,1.397c1.312,0,2.406-0.275,3.281-0.825s1.638-1.438,2.288-2.663
		l3.432,1.913c-1.001,1.788-2.238,3.12-3.714,3.994c-1.475,0.875-3.206,1.313-5.194,1.313c-2.85,0-5.119-0.869-6.807-2.606
		c-1.687-1.737-2.531-4.057-2.531-6.957c0-2.787,0.872-5.078,2.616-6.872s3.984-2.691,6.722-2.691c2.863,0,5.094,0.819,6.695,2.456
		c1.6,1.638,2.4,3.933,2.4,6.882V41.075z"/>
	<path d="M138.92,46.138l3.375-1.837c0.25,0.887,0.713,1.563,1.388,2.025c0.675,0.462,1.544,0.692,2.606,0.692
		c0.913,0,1.629-0.209,2.148-0.628c0.518-0.418,0.778-0.99,0.778-1.715c0-0.963-0.926-1.788-2.776-2.476
		c-0.625-0.226-1.105-0.412-1.443-0.563c-1.901-0.788-3.229-1.588-3.985-2.4c-0.757-0.813-1.135-1.801-1.135-2.964
		c0-1.587,0.622-2.875,1.866-3.861c1.244-0.988,2.891-1.482,4.941-1.482c1.375,0,2.553,0.254,3.535,0.76
		c0.98,0.507,1.697,1.229,2.146,2.166l-2.888,1.987c-0.213-0.562-0.584-1.009-1.115-1.341c-0.532-0.33-1.147-0.496-1.848-0.496
		c-0.775,0-1.396,0.184-1.865,0.553c-0.469,0.369-0.703,0.859-0.703,1.473c0,0.925,1.05,1.769,3.15,2.53
		c0.662,0.238,1.175,0.433,1.537,0.581c1.638,0.651,2.81,1.386,3.516,2.204c0.706,0.819,1.06,1.841,1.06,3.066
		c0,1.774-0.644,3.166-1.931,4.172c-1.288,1.007-3.064,1.51-5.326,1.51c-1.738,0-3.182-0.326-4.332-0.975
		C140.47,48.47,139.57,47.476,138.92,46.138"/>
	<path d="M170.326,40.53c0-1.649-0.531-3.047-1.595-4.19c-1.062-1.144-2.362-1.716-3.899-1.716c-1.525,0-2.822,0.572-3.891,1.716
		s-1.604,2.541-1.604,4.19c0,1.65,0.535,3.049,1.604,4.191c1.068,1.145,2.365,1.716,3.891,1.716c1.524,0,2.822-0.571,3.892-1.716
		C169.791,43.579,170.326,42.181,170.326,40.53 M155.044,40.494c0-1.301,0.245-2.528,0.741-3.686
		c0.492-1.156,1.201-2.185,2.127-3.085c0.912-0.887,1.963-1.568,3.15-2.044c1.188-0.474,2.432-0.712,3.731-0.712
		c1.338,0,2.598,0.238,3.778,0.712c1.183,0.476,2.241,1.176,3.18,2.1c0.937,0.913,1.65,1.945,2.137,3.096
		c0.488,1.149,0.732,2.355,0.732,3.619c0,1.313-0.241,2.544-0.723,3.693c-0.482,1.15-1.185,2.169-2.109,3.057
		c-0.976,0.938-2.057,1.647-3.244,2.129c-1.188,0.48-2.438,0.722-3.751,0.722c-1.287,0-2.525-0.241-3.712-0.722
		c-1.188-0.481-2.244-1.179-3.17-2.091c-0.938-0.926-1.65-1.963-2.137-3.113C155.287,43.019,155.044,41.794,155.044,40.494"/>
	<path d="M181.912,40.419c0,1.838,0.459,3.307,1.378,4.406c0.919,1.101,2.129,1.65,3.628,1.65c1.537,0,2.729-0.512,3.572-1.538
		c0.845-1.025,1.266-2.481,1.266-4.369c0-1.875-0.439-3.341-1.322-4.396c-0.881-1.058-2.09-1.585-3.628-1.585
		c-1.537,0-2.737,0.513-3.601,1.537C182.343,37.149,181.912,38.58,181.912,40.419 M177.974,57.727v-26.14h4.069v2.905
		c0.475-1.125,1.234-1.994,2.277-2.605c1.045-0.612,2.291-0.919,3.742-0.919c2.362,0,4.278,0.872,5.747,2.615
		c1.47,1.744,2.203,4.035,2.203,6.873c0,2.988-0.721,5.342-2.165,7.061c-1.443,1.719-3.423,2.578-5.936,2.578
		c-1.25,0-2.36-0.25-3.328-0.75c-0.969-0.499-1.816-1.263-2.541-2.288v10.67H177.974z"/>
	<path d="M212.137,40.418c0-1.838-0.428-3.269-1.285-4.294c-0.855-1.024-2.053-1.538-3.591-1.538c-1.537,0-2.746,0.529-3.628,1.585
		c-0.881,1.058-1.322,2.522-1.322,4.397c0,1.888,0.425,3.344,1.275,4.369c0.85,1.025,2.05,1.538,3.6,1.538
		c1.464,0,2.654-0.557,3.573-1.669S212.137,42.231,212.137,40.418 M216.094,49.363h-4.069v-2.307
		c-0.725,1.025-1.573,1.789-2.541,2.288c-0.969,0.5-2.079,0.75-3.329,0.75c-2.513,0-4.49-0.859-5.935-2.578
		s-2.165-4.072-2.165-7.061c0-2.838,0.736-5.129,2.212-6.873c1.476-1.743,3.399-2.615,5.776-2.615c1.449,0,2.69,0.303,3.722,0.909
		c1.032,0.606,1.784,1.479,2.26,2.616v-2.907h4.069V49.363z"/>
	<path d="M224.828,34.418c0.438-1.175,1.016-2.044,1.734-2.606s1.611-0.844,2.673-0.844c0.575,0,1.141,0.068,1.696,0.206
		c0.557,0.139,1.104,0.337,1.642,0.601l-1.463,3.449c-0.351-0.25-0.728-0.434-1.134-0.553s-0.86-0.178-1.36-0.178
		c-1.351,0-2.319,0.541-2.906,1.622c-0.588,1.081-0.882,2.896-0.882,5.447v7.801h-4.068V31.549h4.068V34.418z"/>
	<polygon points="234.895,49.363 234.895,35.149 231.781,35.149 231.781,31.586 234.895,31.586 234.895,24.854 238.965,24.854 
		238.965,31.586 242.076,31.586 242.076,35.149 238.965,35.149 238.965,49.363 	"/>
	<path d="M244.623,49.363V31.586h3.826v2.907c0.813-1.225,1.768-2.119,2.868-2.682c1.101-0.563,2.438-0.844,4.013-0.844
		c1.325,0,2.453,0.21,3.385,0.629s1.66,1.04,2.185,1.864c0.313,0.488,0.538,1.058,0.676,1.707c0.138,0.65,0.206,1.787,0.206,3.412
		v10.783h-4.107V40.23c0-2.337-0.283-3.89-0.853-4.659c-0.569-0.769-1.579-1.153-3.028-1.153c-0.949,0-1.798,0.176-2.541,0.525
		c-0.744,0.35-1.328,0.843-1.752,1.481c-0.302,0.425-0.511,0.972-0.63,1.641c-0.118,0.669-0.178,1.735-0.178,3.197v8.101H244.623z"
		/>
	<path d="M279.143,38.337c-0.164-1.275-0.651-2.247-1.463-2.916c-0.813-0.668-1.926-1.003-3.339-1.003
		c-1.338,0-2.413,0.325-3.225,0.975c-0.813,0.651-1.382,1.633-1.706,2.944H279.143z M283.361,41.075h-14.215
		c0.101,1.663,0.594,2.96,1.481,3.891c0.888,0.933,2.069,1.397,3.544,1.397c1.313,0,2.407-0.275,3.282-0.825
		s1.637-1.438,2.288-2.663l3.432,1.913c-1.001,1.788-2.238,3.12-3.713,3.994c-1.477,0.875-3.207,1.313-5.195,1.313
		c-2.85,0-5.119-0.869-6.807-2.606s-2.531-4.057-2.531-6.957c0-2.787,0.871-5.078,2.615-6.872c1.745-1.794,3.984-2.691,6.723-2.691
		c2.862,0,5.094,0.819,6.694,2.456c1.601,1.638,2.401,3.933,2.401,6.882V41.075z"/>
	<path d="M290.707,34.418c0.438-1.175,1.017-2.044,1.735-2.606c0.718-0.563,1.61-0.844,2.672-0.844c0.575,0,1.142,0.068,1.697,0.206
		c0.556,0.139,1.103,0.337,1.641,0.601l-1.463,3.449c-0.351-0.25-0.728-0.434-1.135-0.553c-0.405-0.119-0.858-0.178-1.358-0.178
		c-1.351,0-2.32,0.541-2.906,1.622c-0.588,1.081-0.883,2.896-0.883,5.447v7.801h-4.068V31.549h4.068V34.418z"/>
	<g>
		<defs>
			<path id="SVGID_1_" d="M0,39.381c0,7.084,5.745,12.824,12.826,12.824c4.234,0,7.685-2.091,10.313-5.219
				c3.142-3.434,10.07-7.554,16.097-7.453l-0.231-0.68c-6.04,0-13.026-4.355-16.436-7.805c-2.354-2.745-5.841-4.494-9.743-4.494
				C5.745,26.555,0,32.295,0,39.381"/>
		</defs>
		<clipPath id="SVGID_2_">
			<use xlink:href="#SVGID_1_"  overflow="visible"/>
		</clipPath>
		
			<linearGradient id="SVGID_3_" gradientUnits="userSpaceOnUse" x1="-152.0234" y1="21.6904" x2="-151.0234" y2="21.6904" gradientTransform="matrix(39.2353 0 0 -39.2353 5964.7178 890.3838)">
			<stop  offset="0" style="stop-color:#1D9DD8"/>
			<stop  offset="0.1299" style="stop-color:#1B99D4"/>
			<stop  offset="0.256" style="stop-color:#1491CA"/>
			<stop  offset="0.3807" style="stop-color:#0485BC"/>
			<stop  offset="0.5045" style="stop-color:#0075A8"/>
			<stop  offset="0.6276" style="stop-color:#005F8E"/>
			<stop  offset="0.7503" style="stop-color:#004670"/>
			<stop  offset="0.8727" style="stop-color:#00294D"/>
			<stop  offset="0.992" style="stop-color:#00000B"/>
			<stop  offset="1" style="stop-color:#000000"/>
		</linearGradient>
		<rect y="26.555" clip-path="url(#SVGID_2_)" fill="url(#SVGID_3_)" width="39.236" height="25.65"/>
	</g>
	<g>
		<defs>
			<path id="SVGID_4_" d="M54.691,31.049c-3.411,3.449-10.396,7.805-16.439,7.805l-0.225,0.68c6.025-0.101,12.951,4.02,16.095,7.453
				c2.629,3.128,6.077,5.219,10.311,5.219c7.085,0,12.827-5.74,12.827-12.824c0-7.086-5.742-12.826-12.827-12.826
				C60.532,26.555,57.044,28.304,54.691,31.049"/>
		</defs>
		<clipPath id="SVGID_5_">
			<use xlink:href="#SVGID_4_"  overflow="visible"/>
		</clipPath>
		
			<linearGradient id="SVGID_6_" gradientUnits="userSpaceOnUse" x1="-159.9771" y1="25.2305" x2="-158.9771" y2="25.2305" gradientTransform="matrix(-39.2336 0 0 39.2336 -6199.2114 -950.5029)">
			<stop  offset="0" style="stop-color:#1D9DD8"/>
			<stop  offset="0.1299" style="stop-color:#1B99D4"/>
			<stop  offset="0.256" style="stop-color:#1491CA"/>
			<stop  offset="0.3807" style="stop-color:#0485BC"/>
			<stop  offset="0.5045" style="stop-color:#0075A8"/>
			<stop  offset="0.6276" style="stop-color:#005F8E"/>
			<stop  offset="0.7503" style="stop-color:#004670"/>
			<stop  offset="0.8727" style="stop-color:#00294D"/>
			<stop  offset="0.992" style="stop-color:#00000B"/>
			<stop  offset="1" style="stop-color:#000000"/>
		</linearGradient>
		<rect x="38.027" y="26.555" clip-path="url(#SVGID_5_)" fill="url(#SVGID_6_)" width="39.233" height="25.65"/>
	</g>
	<g>
		<defs>
			<path id="SVGID_7_" d="M25.807,13.278c0,7.332,5.944,13.276,13.276,13.276s13.279-5.944,13.279-13.276
				C52.362,5.944,46.415,0,39.083,0S25.807,5.944,25.807,13.278"/>
		</defs>
		<clipPath id="SVGID_8_">
			<use xlink:href="#SVGID_7_"  overflow="visible"/>
		</clipPath>
		
			<linearGradient id="SVGID_9_" gradientUnits="userSpaceOnUse" x1="-153.9287" y1="28.7734" x2="-152.9292" y2="28.7734" gradientTransform="matrix(0 26.5555 26.5555 0 -724.9883 4087.6719)">
			<stop  offset="0" style="stop-color:#BCBEC0"/>
			<stop  offset="0.2956" style="stop-color:#BABCBE"/>
			<stop  offset="0.4649" style="stop-color:#B3B5B8"/>
			<stop  offset="0.6024" style="stop-color:#A8AAAC"/>
			<stop  offset="0.7227" style="stop-color:#989A9D"/>
			<stop  offset="0.8318" style="stop-color:#858789"/>
			<stop  offset="0.9314" style="stop-color:#6E6F72"/>
			<stop  offset="1" style="stop-color:#58595B"/>
		</linearGradient>
		<rect x="25.807" clip-path="url(#SVGID_8_)" fill="url(#SVGID_9_)" width="26.555" height="26.555"/>
	</g>
	<g>
		<defs>
			<path id="SVGID_10_" d="M25.807,65.188c0,7.326,5.944,13.272,13.276,13.272s13.279-5.946,13.279-13.272
				c0-7.337-5.947-13.281-13.279-13.281S25.807,57.851,25.807,65.188"/>
		</defs>
		<clipPath id="SVGID_11_">
			<use xlink:href="#SVGID_10_"  overflow="visible"/>
		</clipPath>
		
			<linearGradient id="SVGID_12_" gradientUnits="userSpaceOnUse" x1="-158.0713" y1="17.0234" x2="-157.0713" y2="17.0234" gradientTransform="matrix(0 -26.5539 -26.5539 0 491.1191 -4118.9487)">
			<stop  offset="0" style="stop-color:#BCBEC0"/>
			<stop  offset="0.2956" style="stop-color:#BABCBE"/>
			<stop  offset="0.4649" style="stop-color:#B3B5B8"/>
			<stop  offset="0.6024" style="stop-color:#A8AAAC"/>
			<stop  offset="0.7227" style="stop-color:#989A9D"/>
			<stop  offset="0.8318" style="stop-color:#858789"/>
			<stop  offset="0.9314" style="stop-color:#6E6F72"/>
			<stop  offset="1" style="stop-color:#58595B"/>
		</linearGradient>
		<rect x="25.807" y="51.906" clip-path="url(#SVGID_11_)" fill="url(#SVGID_12_)" width="26.555" height="26.554"/>
	</g>
</g>
</svg>
