<?xml version="1.0" encoding="utf-8"?>
<!-- Generator: Adobe Illustrator 16.0.0, SVG Export Plug-In . SVG Version: 6.00 Build 0)  -->
<!DOCTYPE svg PUBLIC "-//W3C//DTD SVG 1.1//EN" "http://www.w3.org/Graphics/SVG/1.1/DTD/svg11.dtd">
<svg version="1.1" id="Layer_1" xmlns="http://www.w3.org/2000/svg" xmlns:xlink="http://www.w3.org/1999/xlink" x="0px" y="0px"
	 width="44.512px" height="44.512px" viewBox="0 0 44.512 44.512" enable-background="new 0 0 44.512 44.512" xml:space="preserve">
<g>
	<defs>
		<rect id="SVGID_1_" y="0.488" width="44.512" height="44.512"/>
	</defs>
	<clipPath id="SVGID_2_">
		<use xlink:href="#SVGID_1_"  overflow="visible"/>
	</clipPath>
	<path clip-path="url(#SVGID_2_)" fill="#808285" d="M22.256,45c12.292,0,22.256-9.964,22.256-22.256S34.548,0.488,22.256,0.488
		S0,10.452,0,22.744S9.964,45,22.256,45"/>
	<path clip-path="url(#SVGID_2_)" fill="#FFFFFF" d="M29.171,17.141h-3.147l-0.332,1.757c-0.994-1.425-2.387-2.055-4.076-2.055
		c-4.11,0-6.762,3.911-6.762,7.987c0,3.414,2.651,6.165,5.568,6.165c1.988,0,3.38-0.929,4.242-1.923
		c0.266,1.061,1.127,1.889,2.055,1.923c1.59,0.065,3.514-0.796,5.104-2.917c1.326-1.756,2.055-4.309,2.055-7.06
		c0-3.147-1.458-5.767-3.712-7.755c-2.187-1.989-4.871-2.883-7.788-2.883c-7.059,0-12.66,5.667-12.66,13.157
		c0,7.589,5.734,13.156,12.859,13.156c3.546,0,6.595-1.061,8.915-2.254l-2.718-2.187c-1.061,0.663-3.182,1.326-5.933,1.326
		c-5.667,0-10.009-3.911-10.009-10.042c0-5.8,3.878-10.042,9.445-10.042c5.07,0,9.181,3.082,8.883,8.683
		c-0.166,2.883-2.055,5.634-3.248,5.767c-0.961,0.1-0.564-1.358-0.398-2.188L29.171,17.141z M18.831,24.3
		c0-1.823,1.358-3.811,3.248-3.811c1.624,0,2.618,1.324,2.386,3.214c-0.199,1.657-1.061,3.646-3.115,3.646
		C19.727,27.349,18.831,25.924,18.831,24.3"/>
</g>
</svg>
