<?xml version="1.0" encoding="utf-8"?>
<!-- Generator: Adobe Illustrator 16.0.0, SVG Export Plug-In . SVG Version: 6.00 Build 0)  -->
<!DOCTYPE svg PUBLIC "-//W3C//DTD SVG 1.1//EN" "http://www.w3.org/Graphics/SVG/1.1/DTD/svg11.dtd">
<svg version="1.1" id="Layer_1" xmlns="http://www.w3.org/2000/svg" xmlns:xlink="http://www.w3.org/1999/xlink" x="0px" y="0px"
	 width="44.512px" height="44.512px" viewBox="0 0 44.512 44.512" enable-background="new 0 0 44.512 44.512" xml:space="preserve">
<g>
	<defs>
		<rect id="SVGID_1_" width="44.512" height="44.512"/>
	</defs>
	<clipPath id="SVGID_2_">
		<use xlink:href="#SVGID_1_"  overflow="visible"/>
	</clipPath>
	<path clip-path="url(#SVGID_2_)" fill="#808285" d="M22.256,44.512c12.292,0,22.256-9.964,22.256-22.256S34.548,0,22.256,0
		S0,9.964,0,22.256S9.964,44.512,22.256,44.512"/>
</g>
<path fill="#FFFFFF" d="M13.125,15.475l8.95,7.279l9.166-7.279H13.125z M31.633,28.512l-6.148-5.757l-2.704,2.148l-0.719,0.571
	l-0.715-0.58l-2.773-2.257l-5.905,5.874H31.633z M27.169,21.417l6.022,5.636v-10.42L27.169,21.417z M11.237,26.925l5.669-5.641
	l-5.669-4.612V26.925z M9.855,12.889h24.719h1.381v1.293v15.623v1.293h-1.381H9.855H8.473v-1.293V14.182v-1.293H9.855z"/>
</svg>
