<?xml version="1.0" encoding="utf-8"?>
<!-- Generator: Adobe Illustrator 16.0.0, SVG Export Plug-In . SVG Version: 6.00 Build 0)  -->
<!DOCTYPE svg PUBLIC "-//W3C//DTD SVG 1.1//EN" "http://www.w3.org/Graphics/SVG/1.1/DTD/svg11.dtd">
<svg version="1.1" id="Layer_1" xmlns="http://www.w3.org/2000/svg" xmlns:xlink="http://www.w3.org/1999/xlink" x="0px" y="0px"
	 width="44.512px" height="44.512px" viewBox="0 0 44.512 44.512" enable-background="new 0 0 44.512 44.512" xml:space="preserve">
<g>
	<defs>
		<rect id="SVGID_1_" width="44.512" height="44.512"/>
	</defs>
	<clipPath id="SVGID_2_">
		<use xlink:href="#SVGID_1_"  overflow="visible"/>
	</clipPath>
	<path clip-path="url(#SVGID_2_)" fill="#808285" d="M22.256,44.512c12.292,0,22.256-9.964,22.256-22.256S34.548,0,22.256,0
		S0,9.964,0,22.256S9.964,44.512,22.256,44.512"/>
	<path clip-path="url(#SVGID_2_)" fill="#FFFFFF" d="M25.549,9.743l-0.69,2.277c0.433,0.104,0.86,0.241,1.278,0.405
		c2.156,0.852,4,2.46,5.156,4.587c1.157,2.134,1.625,4.799,1.023,7.758c-0.125,0.615-0.297,1.244-0.52,1.89l2.182,0.72
		c0.24-0.708,0.43-1.413,0.57-2.106c0.728-3.579,0.15-6.823-1.267-9.435c-1.423-2.619-3.688-4.597-6.337-5.644
		C26.492,10.018,26.026,9.867,25.549,9.743 M23.641,20.187c-1.123-0.369-2.322,0.28-2.678,1.452
		c-0.356,1.171,0.266,2.422,1.39,2.792s2.323-0.279,2.679-1.45S24.764,20.559,23.641,20.187 M26.527,35.535l1.266-0.677
		c-0.713-3.438-3.781-7.402-4.447-7.601l-0.672,0.358l-0.672,0.358l-0.99,0.529l-0.197,0.104l-1.551,0.828
		c-2.172-3.41-2.553-4.577-3.973-8.517l1.355-0.724l1.986-1.057l0.578-0.31c0.264-1.229-1.729-6.92-3.233-8.247l-1.138,0.604
		l-1.012,0.541l-0.587,0.312l-0.588,0.313c-2,1.105-2.881,2.546-2.644,4.318l0.014,0.074l-0.008,0.006
		c1.441,7.755,4.31,13.896,9.404,19.661c1.238,1.239,2.875,1.337,4.905,0.295l0.775-0.413L26.527,35.535z M24.104,14.506
		c0.428,0.126,0.835,0.275,1.224,0.442c2.118,0.922,3.477,2.384,4.194,4.104c0.709,1.703,0.774,3.637,0.315,5.532
		c-0.104,0.431-0.237,0.862-0.4,1.298l-2.182-0.722c0.146-0.375,0.269-0.764,0.365-1.16c0.338-1.396,0.301-2.795-0.199-3.997
		c-0.494-1.182-1.453-2.197-2.967-2.856c-0.316-0.136-0.662-0.26-1.041-0.37L24.104,14.506z"/>
</g>
</svg>
